<svg xmlns="http://www.w3.org/2000/svg" viewBox="0 0 800 200">
  <defs>
    <linearGradient id="goldGrad" x1="0%" y1="0%" x2="100%" y2="100%">
      <stop offset="0%" style="stop-color:#FFD700"/>
      <stop offset="50%" style="stop-color:#FFA500"/>
      <stop offset="100%" style="stop-color:#B8860B"/>
    </linearGradient>
    <linearGradient id="redGrad" x1="0%" y1="0%" x2="100%" y2="100%">
      <stop offset="0%" style="stop-color:#FF4444"/>
      <stop offset="100%" style="stop-color:#DE2910"/>
    </linearGradient>
    <linearGradient id="textGrad" x1="0%" y1="0%" x2="100%" y2="0%">
      <stop offset="0%" style="stop-color:#DE2910"/>
      <stop offset="50%" style="stop-color:#FFD700"/>
      <stop offset="100%" style="stop-color:#DE2910"/>
    </linearGradient>
  </defs>

  <!-- Coin icon -->
  <g transform="translate(20, 10)">
    <!-- Outer coin ring -->
    <circle cx="90" cy="90" r="85" fill="url(#goldGrad)" stroke="#8B4513" stroke-width="4"/>
    <!-- Inner circle -->
    <circle cx="90" cy="90" r="70" fill="none" stroke="#8B4513" stroke-width="2"/>

    <!-- Maple leaf (scaled) -->
    <g transform="translate(42, 30) scale(0.85)">
      <path fill="url(#redGrad)" d="M55.15,85.62c1.73,11.9-0.93,21.51-8.05,31.37c-1.6,2.21-3.29,3.99-5.25,5.89c-0.01-2.63-1.69-3.76-4.22-4.34C48.04,108.25,52.33,96.9,53.7,85.62h-2.36c-7.79-0.77-16.33,12.35-26.35,15.92c4.77-9.16-0.56-10.4-12.66-6.33c9.05-10.8,9.93-14.79,0-13.35c5.13-3.88,9.9-6.11,14.38-7.02c-9.33-2.97-17.63-7.97-24.64-15.57c13.16-0.48,9.93-9.37-2.05-22.76c15.93,8.01,24.33,9.02,21.73-0.17c4.71,3.18,10.75,9.27,17.11,16.09c-2.45-12.5-4.29-24.34-3.42-33.2C41.63,28.56,48.3,19.12,54.84,0c5.51,17.44,11.43,27.12,18.92,20.08c0.97,7.76-0.07,16.06-2.74,24.81l-0.17,6.67c6.21-6.7,12.31-13.03,17.22-15.44c-3.05,10.09,7.63,6.57,21.28,0.38c-12.92,14.44-13.94,22.06-2.57,22.59c-4.73,7.36-13.07,11.84-22.76,15.23c4.22,1.21,8.44,3.49,12.66,7.02c-8.73-0.72-6.9,5,0.25,14.2c-10.92-3.2-16.49-2.33-13.04,6C70.98,90.74,61.77,85.51,56.13,85.62H55.15L55.15,85.62z"/>
    </g>

    <!-- Small star on coin -->
    <polygon fill="#FFD700" points="90,20 94,32 107,32 97,40 101,52 90,44 79,52 83,40 73,32 86,32"/>
  </g>

  <!-- CHINADA text -->
  <text x="220" y="130" font-family="Orbitron, sans-serif" font-size="100" font-weight="900" fill="url(#textGrad)">CHINADA</text>

  <!-- Tagline -->
  <text x="220" y="170" font-family="Inter, sans-serif" font-size="20" fill="#888888" letter-spacing="0.3em">THE MEME THAT DIPLOMACY CREATED</text>
</svg>
